<?xml version="1.0" standalone="no"?>
<!DOCTYPE svg PUBLIC "-//W3C//DTD SVG 20010904//EN"
 "http://www.w3.org/TR/2001/REC-SVG-20010904/DTD/svg10.dtd">
<svg version="1.0" xmlns="http://www.w3.org/2000/svg"
 width="16.000000pt" height="16.000000pt" viewBox="0 0 16.000000 16.000000"
 preserveAspectRatio="xMidYMid meet">
<metadata>
Created by potrace 1.11, written by Peter Selinger 2001-2013
</metadata>
<g transform="translate(0.000000,16.000000) scale(0.007111,-0.007111)"
fill="#000000" stroke="none">
<path d="M400 1125 l0 -1125 720 0 720 0 0 1125 0 1125 -720 0 -720 0 0 -1125z
m835 359 c164 -42 288 -180 316 -351 48 -290 -211 -545 -503 -495 -286 49
-444 353 -320 616 32 67 96 146 117 146 8 0 21 -10 29 -22 14 -20 13 -24 -25
-65 -23 -25 -53 -70 -67 -101 -23 -48 -27 -71 -27 -147 0 -77 4 -99 27 -147
37 -80 105 -149 181 -184 55 -26 73 -29 162 -29 93 0 104 3 160 32 165 85 240
265 185 444 -19 64 -29 81 -88 139 -68 68 -148 110 -207 110 -23 0 -25 -4 -25
-50 0 -49 -1 -50 -30 -50 l-30 0 0 85 0 85 43 0 c23 0 70 -7 102 -16z m-87
-376 l-3 -153 -25 0 -25 0 -3 153 -3 152 31 0 31 0 -3 -152z"/>
</g>
</svg>
